#!OML:ASF H:\Terrain\Walking\May29\JustinRory\Justin.ASF
:FULLY-SPECIFIED
:DEGREES
470
root 16.8382 9.8431 -6.66849 -124.038 -85.8786 101.184
lowerback 41.6552 2.63552 -2.05353
upperback 15.5765 -0.0492732 0.0220523
thorax -2.52326 -1.17657 1.13729
lowerneck -17.507 7.69035 -7.17732
upperneck 26.8418 14.0181 -4.98233
head 11.6276 4.70339 1.37605
rclavicle -1.95803e-014 -1.53064e-014
rhumerus 23.2142 18.4458 -71.4563
rradius 84.2017
rwrist -8.55267
rhand -18.321 27.9439
rfingers 7.12502
rthumb 7.96057 -1.88618
lclavicle -1.95803e-014 -1.53064e-014
lhumerus 29.6686 -21.6041 79.0108
lradius 70.029
lwrist -29.7243
lhand -15.4342 32.2852
lfingers 7.12502
lthumb 10.746 61.9904
rfemur -67.5432 -13.3966 15.6299
rtibia 73.3957
rfoot 19.5551 2.31709
rtoes 18.1503
lfemur -65.1138 6.66873 -11.4944
ltibia 72.3382
lfoot 18.7172 4.20186
ltoes 45.573
471
root 16.835 9.84079 -6.66542 -125.274 -85.7836 102.5
lowerback 41.5329 2.6858 -1.98751
upperback 15.6626 0.0300599 -0.0115852
thorax -2.3952 -1.13785 1.03748
lowerneck -17.7449 8.10804 -6.87866
upperneck 27.2019 14.5172 -4.71749
head 11.8013 4.96065 1.51732
rclavicle 3.97569e-015 1.19271e-014
rhumerus 23.4239 18.6864 -71.6749
rradius 83.8446
rwrist -7.01998
rhand -17.7055 28.1233
rfingers 7.12502
rthumb 8.55451 -1.68343
lclavicle 3.97569e-015 1.19271e-014
lhumerus 29.9631 -21.8028 78.6891
lradius 69.5519
lwrist -30.5663
lhand -15.5907 32.5907
lfingers 7.12502
lthumb 10.595 62.3036
rfemur -67.6762 -13.2737 15.6234
rtibia 73.4065
rfoot 19.5663 2.20873
rtoes 18.4437
lfemur -65.0874 6.65097 -11.3144
ltibia 72.4293
lfoot 18.4564 4.09667
ltoes 45.9693
472
root 16.8453 9.84647 -6.66087 -126.387 -85.687 103.584
lowerback 41.6176 2.72995 -1.8549
upperback 15.7261 0.110999 -0.0736329
thorax -2.34959 -1.09551 0.874213
lowerneck -17.67 8.49719 -6.59905
upperneck 27.0929 14.9017 -4.46154
head 11.7292 5.21678 1.615
rclavicle 9.0447e-015 -1.19271e-015
rhumerus 23.2268 18.8109 -71.827
rradius 83.825
rwrist -5.80958
rhand -17.2799 28.0972
rfingers 7.12502
rthumb 8.96524 -1.69235
lclavicle 9.0447e-015 -1.19271e-015
lhumerus 30.48 -22.1111 77.7743
lradius 69.1227
lwrist -30.7878
lhand -15.6396 32.9844
lfingers 7.12502
lthumb 10.5478 62.6997
rfemur -67.623 -13.1717 15.6001
rtibia 73.3532
rfoot 19.662 2.12646
rtoes 19.0522
lfemur -65.0461 6.60121 -11.0597
ltibia 72.6226
lfoot 18.6144 4.01494
ltoes 46.6646
473
root 16.8329 9.83675 -6.66002 -126.862 -85.8471 104.109
lowerback 41.6117 2.65131 -1.62392
upperback 15.7532 0.0998009 -0.0865832
thorax -2.31675 -1.09012 0.746077
lowerneck -18.2923 8.87567 -5.78054
upperneck 27.721 15.4647 -4.89176
head 12.2088 5.41513 1.47761
rclavicle 7.25564e-015 1.25234e-014
rhumerus 23.197 18.979 -71.7598
rradius 83.5793
rwrist -4.93208
rhand -17.0553 27.9704
rfingers 7.12502
rthumb 9.18195 -1.80972
lclavicle 7.25564e-015 1.25234e-014
lhumerus 30.7981 -22.2108 76.9016
lradius 68.7801
lwrist -31.2013
lhand -15.2288 33.2106
lfingers 7.12502
lthumb 10.9441 62.9053
rfemur -67.6994 -13.2229 15.7639
rtibia 73.405
rfoot 19.7584 1.83729
rtoes 19.7256
lfemur -65.0456 6.69711 -11.1365
ltibia 72.4
lfoot 18.4153 3.9968
ltoes 47.3635
474
root 16.8328 9.82974 -6.66059 -126.556 -85.7831 103.834
lowerback 41.6963 2.58192 -1.53235
upperback 15.6486 0.0493759 -0.264029
thorax -2.45461 -1.09234 0.53228
lowerneck -18.0259 9.41332 -4.37555
upperneck 27.9844 16.0512 -5.71446
head 12.4714 5.68684 1.06078
rclavicle -4.47266e-015 -6.55989e-015
rhumerus 22.9909 19.2183 -71.8784
rradius 83.2705
rwrist -3.90605
rhand -16.9362 28.0573
rfingers 7.12502
rthumb 9.29688 -1.71767
lclavicle -4.47266e-015 -6.55989e-015
lhumerus 30.4699 -22.1608 76.8694
lradius 68.343
lwrist -32.6007
lhand -14.7668 32.7798
lfingers 7.12502
lthumb 11.3897 62.4504
rfemur -67.7699 -13.1555 15.6912
rtibia 73.4337
rfoot 19.7798 1.51922
rtoes 19.7641
lfemur -65.0498 6.71949 -11.2343
ltibia 72.2736
lfoot 18.3907 4.07542
ltoes 46.6881
475
root 16.8398 9.83155 -6.65636 -124.889 -85.4716 102.129
lowerback 42.0025 2.60838 -1.40387
upperback 15.3125 0.154794 -0.482042
thorax -2.91295 -0.996545 0.204373
lowerneck -15.6746 9.86576 -3.45605
upperneck 26.8257 16.1647 -6.01495
head 11.6464 5.97387 0.675468
rclavicle -1.2921e-015 1.59028e-015
rhumerus 22.0762 19.1614 -72.1261
rradius 83.0155
rwrist -2.62176
rhand -17.0572 28.1935
rfingers 7.12502
rthumb 9.18018 -1.58668
lclavicle -1.2921e-015 1.59028e-015
lhumerus 29.6134 -22.6636 78.1236
lradius 67.6297
lwrist -34.6508
lhand -14.3068 32.2088
lfingers 7.12502
lthumb 11.8333 61.8545
rfemur -67.7982 -13.1372 15.3269
rtibia 73.4736
rfoot 19.6312 1.80092
rtoes 18.7311
lfemur -64.8825 6.46583 -11.4235
ltibia 72.0974
lfoot 18.2915 4.39007
ltoes 45.9927
